<?xml version="1.0" encoding="UTF-8" standalone="no"?>
<!DOCTYPE svg PUBLIC "-//W3C//DTD SVG 1.1//EN" "http://www.w3.org/Graphics/SVG/1.1/DTD/svg11.dtd">
<svg version="1.1" xmlns="http://www.w3.org/2000/svg" xmlns:xlink="http://www.w3.org/1999/xlink" preserveAspectRatio="xMidYMid meet" viewBox="190.07142857142867 18.99999999999966 221.39915966386502 544.0160760243285" width="217.4" height="540.02"><defs><path d="M380 100L300 20" id="a6r7eRqkiT"></path><path d="M380 220C340 209.94 320 189.94 320 160C320 130.06 340 110.06 380 100" id="gUGldFr7E"></path><path d="M340 500C370 500.39 383.33 453.72 380 360L380 220" id="blD2BSwzL"></path><path d="M340 500L260 500" id="a1BTIJFFjf"></path><path d="M360 520C376.67 520.39 370 513.72 340 500" id="irbnFHaDk"></path><path d="M360 520L240 520" id="b7ucKcimBt"></path><path d="M382 540L220 540" id="b6mpHwJD3"></path><path d="M380 540C396 540.39 389.33 533.72 360 520" id="b7JQkDpfbp"></path><path d="M400 560L200 560" id="agdak8IrJ"></path><path d="M400 560C416 560.39 409.33 553.72 380 540" id="bKIbXHz4s"></path><path d="M200 560C183.33 559.72 190 553.06 220 540" id="av1NTmPK"></path><path d="M220 540C204.67 539.72 211.33 533.06 240 520" id="d82OMnLj1"></path><path d="M240 520C223.33 519.72 230 513.06 260 500" id="clOIyqPpv"></path><path d="M260 500C230.67 499.72 217.33 453.06 220 360L220 220" id="azTTF2v6q"></path><path d="M220 220C260 207.94 280 187.94 280 160C280 132.06 260 112.06 220 100" id="bEQ5MFdM4"></path><path d="M220 100L300 20" id="dszmYO9bu"></path></defs><g><g><g><use xlink:href="#a6r7eRqkiT" opacity="1" fill-opacity="0" stroke="#000000" stroke-width="1" stroke-opacity="1"></use></g></g><g><g><use xlink:href="#gUGldFr7E" opacity="1" fill-opacity="0" stroke="#000000" stroke-width="1" stroke-opacity="1"></use></g></g><g><g><use xlink:href="#blD2BSwzL" opacity="1" fill-opacity="0" stroke="#000000" stroke-width="1" stroke-opacity="1"></use></g></g><g><g><use xlink:href="#a1BTIJFFjf" opacity="1" fill-opacity="0" stroke="#000000" stroke-width="1" stroke-opacity="1"></use></g></g><g><g><use xlink:href="#irbnFHaDk" opacity="1" fill-opacity="0" stroke="#000000" stroke-width="1" stroke-opacity="1"></use></g></g><g><g><use xlink:href="#b7ucKcimBt" opacity="1" fill-opacity="0" stroke="#000000" stroke-width="1" stroke-opacity="1"></use></g></g><g><g><use xlink:href="#b6mpHwJD3" opacity="1" fill-opacity="0" stroke="#000000" stroke-width="1" stroke-opacity="1"></use></g></g><g><g><use xlink:href="#b7JQkDpfbp" opacity="1" fill-opacity="0" stroke="#000000" stroke-width="1" stroke-opacity="1"></use></g></g><g><g><use xlink:href="#agdak8IrJ" opacity="1" fill-opacity="0" stroke="#000000" stroke-width="1" stroke-opacity="1"></use></g></g><g><g><use xlink:href="#bKIbXHz4s" opacity="1" fill-opacity="0" stroke="#000000" stroke-width="1" stroke-opacity="1"></use></g></g><g><g><use xlink:href="#av1NTmPK" opacity="1" fill-opacity="0" stroke="#000000" stroke-width="1" stroke-opacity="1"></use></g></g><g><g><use xlink:href="#d82OMnLj1" opacity="1" fill-opacity="0" stroke="#000000" stroke-width="1" stroke-opacity="1"></use></g></g><g><g><use xlink:href="#clOIyqPpv" opacity="1" fill-opacity="0" stroke="#000000" stroke-width="1" stroke-opacity="1"></use></g></g><g><g><use xlink:href="#azTTF2v6q" opacity="1" fill-opacity="0" stroke="#000000" stroke-width="1" stroke-opacity="1"></use></g></g><g><g><use xlink:href="#bEQ5MFdM4" opacity="1" fill-opacity="0" stroke="#000000" stroke-width="1" stroke-opacity="1"></use></g></g><g><g><use xlink:href="#dszmYO9bu" opacity="1" fill-opacity="0" stroke="#000000" stroke-width="1" stroke-opacity="1"></use></g></g></g></svg>